<svg width="20" height="18" viewBox="0 0 20 18" fill="none" xmlns="http://www.w3.org/2000/svg">
<path d="M3.34918 0C3.73294 0 4.08182 0.316406 4.15159 0.703125L4.22137 1.125H18.874C19.6067 1.125 20.1649 1.86328 19.9555 2.56641L18.0716 9.31641C17.9321 9.80859 17.5134 10.125 16.9901 10.125H5.93084L6.24483 11.8125H17.025C17.4785 11.8125 17.8623 12.1992 17.8623 12.6562C17.8623 13.1484 17.4785 13.5 17.025 13.5H5.54708C5.16332 13.5 4.81445 13.2188 4.74468 12.832L2.65144 1.6875H0.837296C0.348873 1.6875 0 1.33594 0 0.84375C0 0.386719 0.348873 0 0.837296 0H3.34918ZM4.46558 16.3125C4.46558 15.3984 5.19821 14.625 6.14017 14.625C7.04724 14.625 7.81476 15.3984 7.81476 16.3125C7.81476 17.2617 7.04724 18 6.14017 18C5.19821 18 4.46558 17.2617 4.46558 16.3125ZM17.8623 16.3125C17.8623 17.2617 17.0948 18 16.1877 18C15.2458 18 14.5131 17.2617 14.5131 16.3125C14.5131 15.3984 15.2458 14.625 16.1877 14.625C17.0948 14.625 17.8623 15.3984 17.8623 16.3125Z" fill="#121212"/>
</svg>
